<?xml version="1.0" encoding="utf-8"?>
<!-- Generator: Adobe Illustrator 24.0.1, SVG Export Plug-In . SVG Version: 6.00 Build 0)  -->
<svg version="1.1" id="Слой_1" xmlns="http://www.w3.org/2000/svg" xmlns:xlink="http://www.w3.org/1999/xlink" x="0px" y="0px"
	 width="301.1px" height="301.1px" viewBox="0 0 301.1 301.1" style="enable-background:new 0 0 301.1 301.1;" xml:space="preserve"
	>
<style type="text/css">
	.st0{fill:none;stroke:#FFFFFF;stroke-width:3;stroke-miterlimit:10;}
</style>
<g>
	<path class="st0" d="M139.3,286c1.9,1.4,12.2,7.3,13.5,8.2c8.4,5.7,17.8,1.1,20.1-9.8c0.2-1,1.7-2.6,2.1-2.4
		c1.1,0.4,2.7,1.9,2.6,2.6c-0.6,2.7-1.3,5.6-2.7,7.9c-2.3,3.8-2.1,6.4,1.7,7.8c1.6,0.6,3.6-0.1,5.4-0.7c2.5-0.7,4.9-2.6,7.3-2.6
		c3,0,6.1,2.2,9.1,1.9c6.8-0.8,13.6-2,18.7-8c4.3,3.6,8.7,3.1,12.9,0.3c4.3-2.9,8.4-6.5,12.9-8.9c7.8-4.2,10.4-10.6,7-19.4
		c-2.1-5.5-4.4-11-6.8-16.8c3.9,0,7.4-0.2,10.8,0.1c1.4,0.1,3,0.8,4,1.8c3,2.9,4,2.8,4.8-1.8c1.1-6.2,2-12.5,2.6-18.9
		c0.8-8.3,2-16.8,1.3-25c-0.6-6.8,0.9-9.4,6.4-12.1c5.4-2.7,9.7-6.6,13.2-12.1c2.4-3.9,5.5-7.3,8.3-10.9c0.7-1,1.6-1.8,2.1-2.9
		c7.2-16,4.9-29.7-10.9-34.9c-0.1,0-0.2-0.2-0.4-0.5c1.2-5,2.2-10.2,3.7-15.3c1-3.3,2.1-6.8,4-9.4c2.6-3.5,3-6.9,2.1-11
		c-0.7-3-2.3-4.1-4.7-2.5c-9.6,6.2-19.3,5.5-29.1,1c-1.4-0.7-3-2.4-3.5-4c-1.1-3.4-2.6-6-5.1-8.5c-3.3-3.2-7.3-6.6-5.7-13
		c0.2-0.9-1.1-3.2-2-3.6c-8.9-3.6-17.9-6.8-26.8-10.5c-4.3-1.8-8.5-3.4-11.7-8.1c-3.6-5.3-4.2-4.8-5-10.2c-0.7-0.1-1.4-0.3-2.1-0.2
		c-4.1,0.6-5.9-2-6.8-6c-0.6-2.9-0.9-5.9-2-8.6c-0.6-1.5-2.2-2.7-3.6-3.7c-1.1-0.8-2.7-0.9-3.6-1.9c-3.6-3.6-7.4-5.5-12.3-3.8
		c-1.3,0.4-2.9,0.1-4.2-0.4c-4.5-1.7-6-1.1-7.8,3.9c-0.6,1.7-1.2,3.4-1.6,5.2c-0.9,3.9-2,7.1-6.1,7.9c-1.1,0.2-2,1.6-3.6,2.9
		c-1.2-1.4-2.4-3-3.8-4.4c-2.3-2.3-4.5-4.9-7.2-6.4c-2.9-1.7-6.4-2.4-9.6-3.4c-6.2-2-12-4.4-15.1-11.9c-0.6-1.5-4.1-2.9-5.3-2.2
		c-3.4,1.9-6.5,4.6-9.2,7.6c-1.7,1.9-2.4,4.1-5.3,2.1c-0.6-0.4-2.7,1.1-3.7,2.3C88,13.4,88.1,15,88,15.5c-2.4,0-4.6-0.6-6.3,0.1
		c-3.5,1.5-6.7,1.8-10.1-0.1c-0.7-0.4-1.6-0.4-2.4-0.5c-0.1,1-0.2,2.1-0.2,3.1c0,5.9,0.3,11.8,0,17.7c-0.1,3.6-1.4,6.2-5.4,6.4
		c-3.7,0.2-6.4,3.2-7.9,7c-1.2,2.9-2.7,6.2-2.5,9.2C53.9,68,49.9,72,42,72.9c-3.3,0.4-4.5,2.6-3.7,7c1.5,8,2.6,16.2,3,24.4
		c1,18.7-5.2,33.4-19.4,43.4c-2.9,2.1-5.9,4.5-8,7.5c-1.4,2-2.5,3.2-4.7,3.8c-7,1.8-9.9,6.8-8.3,14.7c0.9,4.2,2.5,8.2,4.4,12
		c2.3,4.5,4.3,8.8,4.3,14.2c0,2,0.7,4.3,1.7,5.9c5.7,8.6,11.5,17,17.4,25.4c2.3,3.3,4.7,6.4,8.8,7.3c1.3,0.3,2.6,2.9,3.2,4.7
		c0.7,2.2,0.4,4.8,0.8,7.1c0.6,3.4,2,6,6.5,5.3c-0.5,6.3-0.8,12.2-1.6,18c-0.9,5.9,0.5,8,5.7,8.6c3,0.3,6.3,0.9,8.9,2.5
		c5.8,3.7,11.7,4.1,18,2.7c5.4-1.2,10.8-2.4,16.2-2.9c4.5-0.4,8.2-1.9,11.5-5.2c2.7-2.6,5.5-5.2,8.3-7.8c5,4.8,10.4,6.6,16.6,6
		C136.6,277.2,139.7,281.1,139.3,286"/>
	<path class="st0" d="M242.5,279.8c-0.9-3-1.7-5.4-2.4-7.8c-0.2,0.1-0.4,0.1-0.7,0.2c0,0.6-0.1,1.2,0,1.8c1.5,6.5,0.5,8.8-4.9,11.5
		c-2.8,1.4-5.5,3.4-8.4,4.5c-5,1.9-6.4,0.6-6.9-5.3c-0.2-2.3-1-4.6-1.5-6.8c-0.3,0.1-0.6,0.2-0.9,0.3c-0.6,3.5-0.4,7.7-2,10.4
		c-1.6,2.8-5.1,4.2-8.3,6.6c0.5-6.7,0.8-12,1.2-17.2c-0.3,0-0.7-0.1-1-0.1c-0.3,3.1-0.5,6.3-0.8,9.4c-0.7,7.8-1.3,8.4-8.8,8.7
		c1.5-4.3,2.9-8.4,4.3-12.5c-0.3-0.1-0.6-0.3-1-0.4c-1.1,3-2.2,6.1-3.5,9c-1.6,3.6-3.2,4-6.5,2.2c-1.3-0.7-3-0.6-4.6-0.9
		c8.7-12.1,15.4-25.4,14.4-41.8c-0.3-0.1-0.7-0.2-1-0.3c-0.1,3,0,6-0.4,9c-1.7,12.4-6.9,22.9-14.2,32.2c-1.4,1.7-2.6,3.7-4.3,4.8
		c-1.1,0.7-2.8,0.1-4.2,0.1c-0.1-0.5-0.2-0.9-0.3-1.4c0.9-1.2,1.9-2.4,2.8-3.7c2-3.1,2.5-6.5,1.1-10c-1.3-3.3-3.8-3.6-6.6-3.2
		c-0.8,0.1-1.9-1-2.5-1.8c-3.9-5.6-5.6-12.2-6.4-19.2c-0.2-2.1-0.5-4.1-1.1-6.1c-0.6,8.4,1.1,16.2,4.8,23.4
		c4.4,8.4,3.2,13.1-4.8,17.5c-10-10.2-18-21.7-19.7-38.4c-1.4,5.1,0.6,13.8,5.3,21.7c3.8,6.2,8.2,11.9,13,18.6
		c-2.3-0.7-4.3-0.8-5.7-1.8c-7.4-5.2-14.4-10.5-18.9-19.8c-3.7-7.7-9.5-14-14.5-21.2c-0.4,0.7-0.3,0.4-0.2,0.3
		c7.9-3.5,13.1-10.8,18.3-18c2.1-2.9,4.8-5.2,7.9-8.5c0,3.3-0.2,5.5,0.1,7.6c0.2,1.3,1,2.4,1.6,3.6c0.9-0.6,2.1-0.9,2.8-1.7
		c2.2-2.6,4.3-5.5,6.8-8.7c0,2.2-0.2,4,0.1,5.6c0.2,1.1,0.8,2.5,1.6,2.9c0.6,0.3,2.2-0.3,2.5-1c2.8-6,7.5-9.4,12.6-12.4
		c1.4-0.8,2.4-2.4,4.1-4.3c9.7,22.9,13,45.6,4.3,69.4c2.5-2.3,4.6-8.3,5.4-15c2.3-18.1-0.3-35.3-7.4-51.6c-1.4-3.1-1.3-5.3,0.6-7.8
		c1.5-2,2.6-4.4,4.3-7.5c1.5,2.8,2.8,4.8,3.7,7c2,4.6,3.9,9.2,5.6,13.9c1.4,4,1.6,7.8-1.8,11.2c-1,1-1.6,4.4-0.9,5.6
		c1.3,2.1,3.6,4.4,5.6,4.5c3.4,0.3,6.8-1.4,9.4,2.8c0.3,0.5,3.2-0.9,4.8-1.9c6.3,1,11.9-2.9,17.9-4.2c1.6-0.3,3.5-0.5,4.8,0.3
		c1.6,0.9,3.1,2.6,3.9,4.4c2.5,5.7,4.7,11.6,7.1,17.3c1.6,3.8,0.8,7.1-1.8,10.4c-1.3-5-2.5-9.7-3.8-14.4c-0.4,0.1-0.7,0.2-1.1,0.3
		c0.8,3.1,1.9,6.2,2.2,9.3C244,274,246.5,277.4,242.5,279.8z M177.6,265.4c8,10.1,5.8,20.5,0.7,31
		C186.1,287.8,185.8,272.1,177.6,265.4z"/>
	<path class="st0" d="M102.1,240.4c-1,3.6-2.1,7.1-2.8,10.7c-0.5,2.8-1.7,3.2-3.9,3c-11-1.3-12.8-4.7-7.6-15.9
		c2.1-4.5,4.6-8.7,6.9-13.1c0.6-1.1,1.1-2.3,1.7-3.4c-0.5-0.3-0.9-0.6-1.4-0.9c-4.3,9-8.6,18.1-13.1,27.6c-2.1-2.2-4.7-5.1-7.3-7.9
		c6.5-11.6,12.8-22.9,19-34.1c-0.3-0.2-0.6-0.5-1-0.7c-6.4,11.2-12.7,22.5-19.2,33.9c-1.9-0.7-3.6-1.2-5.2-1.9c-4.5-2-5-4.1-2.5-8.6
		c1.9-3.4,3.3-7,5-10.6c-0.4-0.2-0.7-0.4-1.1-0.6c-1,2.3-1.9,4.6-3,6.8c-1.2,2.3-2.5,4.5-3.9,6.9c-4.5-2.9-7.8-6.1-9.8-11.5
		c-2.5-6.8-4.8-13.4-4.1-20.9c0.2-1.6,0.9-3.5,1.9-4.5c3-2.9,6.2-5.4,9.4-8c-0.2-0.3-0.4-0.7-0.6-1c-3.5,2.8-7.1,5.5-10.6,8.3
		c-2-3.2-1.5-5.6,1.1-7.6c4.5-3.4,8.9-6.9,13.2-11c-2.4,1.4-5,2.5-7.2,4.2c-2.9,2.2-5.5,4.9-8.3,7.2c-1.8,1.5-3.6,3.1-5.6,3.7
		c-0.9,0.3-3.3-1.4-3.4-2.4c-0.6-4.7-0.8-9.4-0.9-14.1c-0.2-5.8,3.6-7.9,7.4-9.8c0.3-0.1,0.4-0.6,1.2-2c-3,1.5-5,2.6-7.3,3.7
		c0.3-7.8,5.2-11.1,10.2-14.7c-0.1,8,4.8,11.8,12.7,10.3c4.2-0.8,4.4-0.4,5.1,4.4c0.6,4.7,1.5,9.5,3,13.9c0.9,2.6,2.9,5.5,5.1,6.5
		c5.9,2.7,9.4,8.9,14.7,12c11.8,6.8,24,12.7,37.2,3.6c3-2,6.1-3.6,9.5-5.7c0.4,2,0.4,3.7,1,5.2c1.9,4.8,4,9.5,5.9,14.3
		c0.9,2.3,1.7,4.6,2.4,7c0.2,0.6-0.2,1.7-0.6,2.2c-3.9,4.3-7.9,8.5-12.8,12.5c1.3-7.7,2.6-15.5,3.8-23.2c-0.2-0.1-0.3-0.1-0.5-0.2
		c-0.9,3.1-2.1,6.1-2.6,9.2c-0.8,5.1-1.3,10.4-1.6,15.6c-0.2,3-1.1,4.9-3.6,6.2c-3.3,1.7-6.2,4.1-9.4,6c-1.7,1-3.7,1.3-6.6,2.3
		c2.7-9.7,5-18,7.3-26.3c-0.2-0.1-0.4-0.2-0.6-0.3c-0.4,0.7-0.9,1.4-1.1,2.1c-1.9,6.4-3.8,12.9-5.4,19.4c-0.8,3.3-2.2,5.2-5.3,5.3
		c-2.2,0.1-4.4,0.5-7.2,0.8c1.2-5,2.2-9.4,3.3-13.7C102.8,240.7,102.5,240.6,102.1,240.4z"/>
	<path class="st0" d="M122.1,75.8c2.5,5,5,10.1,7.6,15.1c0.3-0.2,0.6-0.4,0.9-0.5c-2.3-5-4.6-10.1-7.2-15.6c1.4-0.8,3-2.3,4.8-2.6
		c3.1-0.5,4.9,2.1,5.2,6.7c0.6,9.1,3,17.6,7.8,25.2c-0.4-1.2-0.9-2.4-1.2-3.6c-1.8-7.3-3.7-14.6-5.3-22c-0.3-1.4,0.5-3.2,0.8-4.8
		c0.5-0.1,1.1-0.2,1.6-0.3c0.8,1.7,1.7,3.2,2.2,5c1.1,4,2,8.1,3.6,12c-0.2-6-4.5-11.5-1.4-17.6c1.1-2.2,3.3-3.8,5.6-6.5
		c-0.4,5.6-0.8,9.8-1.1,14c0.4,0.1,0.7,0.2,1.1,0.3c1.6-4.7-1.9-12.4,6.6-13.9c-0.9,4.2-1.4,8-2.6,11.4c-1.8,5.3-0.9,9.4,2.6,13.4
		c7.2,8.1,9.5,18.9,10.9,29.7c1.8,14.4,2.9,29,4.2,43.5c0.1,0.9-0.3,2.5-0.9,2.8c-2.9,1.4-6,2.6-9.2,3.9
		c-3.6-9.7-6.7-19.2-13.6-26.9c4.4,9.1,8.5,17.6,12.9,26.9c-3.6-0.1-5.3,0.1-7.7-1.8c-9-6.9-15.9-15.8-21.8-25.8
		c-0.1-0.1-0.4,0-1.2,0c5.1,9.8,11.3,18.1,19.4,24.5c-7.5,0.8-13.5-2.4-17.8-9.4c-7.1-11.6-14.3-22.9-25.3-30.1
		c-0.3-0.2-0.8-0.4-0.9-0.8c-1.2-5.4-2.9-10.8-3.5-16.3c-0.4-3.3,2-3.9,5-2.3c2.7,1.5,5.8,3.1,8.7,3c8-0.1,13.8,3.9,18.7,10.4
		c0.7,0.9,1.3,1.7,2,2.6c0.1,0.1,0.4,0,0.7,0c-2.4-7.3-11.5-13.9-19.7-14.4c-2.8-0.2-5.6-0.9-8.3-1.8c-0.6-0.2-1.1-1.8-1.1-2.7
		c0-0.6,1.2-1.3,1.9-1.5c5-1.1,5-1.1,4.6-6.9c-0.1-1,0.2-2.1,0.3-3.9c7.9,5.2,11.3,14.3,17.2,20.6c0.2-0.3,0.5-0.7,0.5-0.7
		c-4.6-6.3-9-12.8-13.9-18.7c-2.4-3-3.5-5.9-1.7-9.4c1.8-3.6,4.1-6.9,6.3-10.3C121,75.7,121.5,75.7,122.1,75.8z M162.8,165.3
		c0.3-9.5-12.2-35-18.8-38.6C152.6,138.1,159.1,150.8,162.8,165.3z M163.5,150c-3.3-12.9-6.5-25.8-9.8-38.7
		C155.3,124.8,157.9,137.9,163.5,150z"/>
	<path class="st0" d="M93.1,70.4c6.3,9.8,16.8,16.6,16.4,30.9c-0.3,0.4-0.7,0.7-1,1.1c-3.9-4.1-7.8-8.2-11.7-12.3
		c0.1-0.1,0.1-0.2,0.2-0.3c3,4,5.9,8,9.2,12.2c-2.5,1.6-5.2,3.2-8.5,5.3c-4.3-6.5-8.6-12.8-13.4-20c0.5,1.7,0.5,2.6,0.9,3.3
		c1.9,3.3,3.6,6.8,5.9,9.8c3.5,4.4,6.4,8.5,6,15.2c-0.3,4.2,1.8,8.7,3,13c0.3,0.9,1.2,1.7,2,2.3c9.3,6.3,16.1,15.5,22.6,26.1
		c-3.6-1.4-6.4-2.9-9.4-3.7c-3.5-0.9-7.1-1.3-10.7-1.6c-1.8-0.1-3.3-0.3-3.3-2.8c0-2.4-0.5-5.4,2.6-6.1c1.9-0.4,3.9-0.5,5.9-1.1
		c-4.3-2-9.2,1.4-13.6-1.8c-4-2.9-8.6-4.9-12.9-7.3c0-0.6,0-1.2,0.1-1.8c4-1.1,8-2.1,12.4-3.3c-4.4-1.2-8.2-0.1-12,1.9
		c-1.1,0.6-3.2,0.4-4.1-0.5c-2.2-2.2-4.2-4.8-5.9-7.6c-2.1-3.5-3.2-7,0.4-10.8c3.1-3.3,2.1-6.8-1.8-8.6c-2.5-1.1-5.1-1.8-7.7-2.7
		c-0.1-0.5-0.3-0.9-0.4-1.4c3.4-2,6.9-4,11-6.4c-4.7-0.1-8,2.3-11.9,5.8c0.2-4.8,0.4-8.5,0.6-12.7c2.4,0.9,4.5,1.8,6.7,2.6
		c0.1-0.3,0.2-0.7,0.4-1c-2.1-1.1-4.2-2.2-6.8-3.5c0.8-2.3,1.6-4.4,2.6-7c3.2,2.9,5.9,5.4,8.6,7.8c0.2-0.3,0.4-0.6,0.7-0.9
		c-2.7-2.7-5.4-5.4-8.1-8c3-4.5,6-8.9,9.5-14.1c3.1,3.9,6,7.5,8.9,11.2c0.2-0.2,0.5-0.5,0.7-0.7c-2.6-3.6-5.1-7.2-8-11.1
		c2.6-2.2,5.4-4.6,8.7-7.4c2.8,3.4,5.4,6.7,8.1,10c0.2-0.3,0.5-0.5,0.7-0.8c-2.6-3.4-5.1-6.9-8-10.8c6.4-1.1,12.6-3,17.8,4.3
		c0.2-0.4,0.3-0.9,0.5-1.3c-1.3-1.3-2.5-2.5-4.1-4.1c3.4-1,6.3-1.9,9.1-2.7c1.7,3.9,3.3,7.5,4.9,11.1c0.3-0.2,0.6-0.3,0.9-0.5
		c-1.4-3.5-2.8-7-4.5-11.3c3.4-0.3,6.2-0.7,9-0.7c0.7,0,1.6,1.4,1.9,2.3c0.9,2.2,1.5,4.5,2.2,6.8c0.3-0.1,0.6-0.3,0.9-0.4
		c-0.7-2.5-1.4-5.1-2.3-8.5c7.1,1.1,13.3,2.4,18,8.1c2.4,2.9,1.7,9.4-0.4,12.6c-3.3,5.1-7.2,5.4-12.1,3.4c-1.8-0.7-4.6-0.5-6.2,0.7
		c-3.7,2.7-7.5,5.6-10.3,9.4c-2.3,3.1-3,7.6-4.4,11.4c-2.1-3.3-4.6-7.4-7.4-11.3c-2.8-3.7-5.9-7.2-8.8-10.7
		C93.6,70,93.3,70.2,93.1,70.4z"/>
	<path class="st0" d="M275.2,111.5c0,2.9,0.4,5.9-0.1,8.7c-0.8,4.8-2.8,6.1-7.1,5.3c-1.8-0.4-3.7-0.7-5.6-1
		c-0.1,0.4-0.1,0.7-0.2,1.1c3.1,0.7,6.2,1.4,9.7,2.3c-0.6,2.6-1.1,5.1-1.9,8.4c-3.5-3.9-6.9-7.2-11.7-6.6c13.6,5.5,12,9.9,4.2,18.6
		c-7.3-9.7-17.6-8.5-27.2-9.9c-0.1,0.4-0.2,0.8-0.2,1.3c4.7,0.6,9.3,1.2,14,1.9c5,0.8,9.1,3.5,12.4,7.9c-1.6,2.9-3.1,5.7-4.5,8.2
		c-2.8-3.2-5.5-6.4-8.1-9.5c-0.3,0.4-0.6,0.7-0.9,1.1c1.4,1.4,3,2.7,4.3,4.3c4.2,5,3.8,7-1.7,10.4c-4.4-8.7-10.3-11.9-17.7-9.3
		c6.8,0.7,13.9,0.9,16.2,10.8c-6.9,4.6-13.9,7.8-21.9,3.8c-3.4-1.7-6.7-3.8-9.9-5.9c-4.5-3-8.9-5.4-14.4-3.6
		c-4.9,1.6-9.6,1.1-13.5-3.3c-0.7-0.7-1.8-1-3.2-1.7c2.4-3,4.7-5.9,7.9-10c1.7,4.9,3.1,8.7,4.4,12.6c0.3-0.1,0.6-0.2,0.8-0.3
		c-1.1-3.9-2.2-7.9-3.4-12.1c3.3-2.1,7-1.9,10.7,0.1c2.8,1.5,5.4,3.3,8.1,4.9c3.6,2.2,7.1,1,8.9-3.3c0.3-0.7,0.6-1.9,1.1-2.1
		c3-1,3.2-3.7,3.3-6.4c0.1-4.3,1.4-6.9,5.7-7.1c3.4-0.1,5.1-2.5,6-6.4c2.1-10,0.2-19.4-2.9-28.6c-0.5-1.6-2.4-3-3.9-3.8
		c-7.1-3.6-14.3-7-21.6-10.3c-2.1-0.9-3.7-1.5-3.8-4.8c0-1.4-2.4-2.9-3.9-4.1c-1.6-1.2-3.4-2-5.4-3.2c8.3-10.5,29.7-11.3,34.7,1
		c-4.6,2.3-9.2,4.6-13.8,7c0.1,0.4,0.3,0.7,0.4,1.1c3.8-1.8,7.8-3.2,11.4-5.4c6.7-4,11.6-3,16.2,3.7c1.4,2,3.3,3.4,4.7,5.3
		c1.2,1.7,2.4,3.6,3,5.6c1.1,3.9,1.8,7.9,2.6,11.4c-4.7,0.7-9.6,1.5-14.5,2.3c0.1,0.5,0.1,1,0.2,1.5c5.9-1.1,12-3.7,17.7,0.2
		c2.3,1.6,4.1,4.1,6.8,6.9c-9.5,2.2-18.3,0.6-26.6,4.9C252.8,114,263.8,112.8,275.2,111.5z"/>
	<path class="st0" d="M248.9,169c0.3-0.2,0.6-0.6,1.1-0.9c5.4-3.9,6.3-3.8,10.7,1.7c4.6,5.8,6.3,12.7,5.7,20.4
		c-0.1,1.1-0.8,3-1.4,3.1c-4.4,0.8-4.3,5-5.5,8.4c-0.2,0.5-0.4,1-0.9,2.1c-1.9-3.7-3.6-7-5.3-10.2c-0.3,0.2-0.6,0.3-0.9,0.5
		c1.2,2.5,2.1,5.3,3.6,7.6c5.2,8.1,3,17.3-2.3,22.4c-3.6,3.4-7.1,6.9-11.4,11.1c0.2-11.9-1.9-22.1-6-31.7c-0.3,0.1-0.6,0.2-0.9,0.3
		c0.3,1.1,0.7,2.1,1,3.2c1.6,7.8,3.3,15.6,4.8,23.5c0.9,4.8-1.4,7.5-5.1,8.9c-5.1,1.9-10.2,3.6-16.2,5.7c0.5-4.4,0.9-8,1.3-11.6
		c-0.3-0.1-0.7-0.1-1-0.2c-0.6,3.8-1.2,7.7-1.9,11.9c-0.8-0.1-1.8-0.3-3.9-0.6c2.5-7.7,4.8-14.9,7.2-22.2c-0.3-0.1-0.6-0.3-1-0.4
		c-3,8.5-5.9,17-9.2,26.3c-5-6,1.8-10.4-0.1-15.3c-2.9,3.2-0.3,11.6-6.8,10.9c2.1-6.7,4.8-13.3,6-20.2c1.8-10.4,0-20.6-4.2-30.1
		c-1.7-3.8,0-6.9,1.5-9.8c1-2,3.3-1.7,4.2,0.6c2,4.9,3.7,10,5.9,15c-0.7-3.4-1.2-6.9-2.3-10.2c-1-3.2-3.4-5.9-2.2-9.9
		c0.2-0.5-1.2-2-2-2.5c-4.4-2.3-8.8-4.5-13.4-6.8c2.2-2.3,4-4.8,6.4-6.3c1.7-1.1,4.3-1.7,6.1-1.1c2.9,1,5.6,3,8.2,4.8
		c6.1,4.2,12.3,7.4,19.7,5.8c1.2-0.3,3,0.9,4.1,2c1.9,2,3.4,4.4,5,6.7c0.3-0.3,0.6-0.5,0.9-0.8c-1.9-2.8-3.9-5.6-5.8-8.5
		c2.8-2.6,5.3-2.9,7.7,0.6c2.1,3.1,4.3,6.1,6.5,9.1c0.3-0.2,0.6-0.5,0.8-0.7C254.6,177.4,251.8,173.3,248.9,169z M207.3,168
		c5.3,3.2,11.3,5.6,16,9.8c4.7,4.2,8.2,10.3,12,15.1C233.3,182.1,216.2,168,207.3,168z"/>
	<path class="st0" d="M209.6,178.8c-1.7,1.6-4.1,2.6-4.6,4.4c-1,3.3-2.8,5-5.2,6.9c-3.1,2.3-6.1,2.3-9.1,0.9
		c-6.7-3.2-9.4-2.7-14.2,3.6c-0.5,0.6-0.9,1.2-1.9,2.5c-0.4-2.3-0.7-3.9-0.8-5.5c-0.1-1.7,0-3.4-0.9-5.1c0,2.9-0.5,5.9,0.1,8.5
		c0.8,3.4,0.9,5.9-2.1,7.9c-1.1,0.7-1.8,2.2-3.6,3.3c0-5.5,0-11,0-16.4c-0.3,0-0.7,0-1,0c-1.6,5.8-0.7,11.7,0.1,17.9
		c-1.6,0.3-3.3,0.6-5.2,0.9c0-1.8,0-3.7,0-6.4c-2,3.3-0.6,9-6.1,8.1c2.9-9.3,4.2-18.7,3-28.4c-0.6,9.5-0.7,19.1-4.5,27.6
		c-2.2,0-4-0.3-5.8,0.1c-4,0.8-5.9-0.2-6.8-4.8c-1-4.8-1.4-9.8-2-14.7c-1.2-9-1.2-9.1-8.9-10.4c-2.5-0.4-5.1-0.5-7.9-0.7
		c0.8-5.7,4.1-9.1,8.3-11.8c-0.2-0.3-0.4-0.6-0.6-1c-1.4,1-3.3,1.6-4.2,3c-1.9,2.9-3.8,6-4.9,9.3c-2.3,7.4-6.5,11.1-13.3,10.7
		c-5.7-0.3-9.6-2.6-13.7-7.9c4.3-4.5,8.3-9.4,10.1-16.7c-3.7,5.6-7.1,10.7-10.8,16.3c-2.3-3-3.9-5.1-5.7-7.4
		c1.3-1.1,2.3-1.9,3.2-2.6c-0.1-0.3-0.1-0.5-0.2-0.8c-1.1,0.4-2.2,0.8-3.3,1.2c-2-5-1.4-8.5,2.7-12.1c5.9-5.2,12.7-5.2,19.6-4.4
		c8,1,14.9,5.2,21.4,10.4c4.1,3.3,7.9,7.3,13.7,6.3c1.2-0.2,2.7,1.2,3.5,1.5c-1.8,8.4-3.4,16.3-5.1,24.3c0.4,0.1,0.8,0.3,1.3,0.4
		c0.2-0.8,0.5-1.6,0.7-2.5c0.8-4.4,1.3-9,2.3-13.3c1.6-6.8,1.9-6.7,8-7.6c3.8-0.5,7.5-1.7,11.2-3c5.5-1.9,10.8-4.2,16.5-0.7
		c1.8,1.1,4.1,1.1,6.2,1.2c2.1,0.2,4.4-0.8,6.2,0C200.1,173.8,204.9,176.5,209.6,178.8z"/>
	<path class="st0" d="M76,129.7c7.2,4.6,14.5,9.1,21.6,13.7c0.7,0.5,1.2,1.9,1.3,2.9c0.2,1.7,0.1,3.4,0.1,4.7
		c-3.5,1.8-7.1,3-10.2,5.2c-5.3,3.8-6.7,9.7-4.4,16.3c3.5,10,15,19.2,23.7,19.3c5.3,0,9.7-2,13-6.9c2.1-3.2,11.4-3.8,13.9-1.2
		c2.4,2.5,1.6,9.5-1.1,11.2c-3.5,2.1-7,4.3-10.6,6.2c-8.1,4.2-13.6,3.9-22-1.1c1.4-1.9,2.8-3.8,4.2-5.7c-0.2-0.2-0.4-0.4-0.6-0.6
		c-0.6,0.6-1.2,1.2-1.8,1.8c-4.6,5.3-6.2,5.5-11.4,0.9c-3.1-2.8-6-5.9-9.5-9.4c2.2-1.9,4-3.5,5.8-5c-0.1-0.3-0.3-0.6-0.4-0.8
		c-1.5,1.1-3.4,1.8-4.5,3.3c-1.8,2.3-3.4,1.8-5.2,0.6c-4.5-3-6.7-7.8-7.6-13.5c-0.1-0.9,0.5-2.2,1.2-2.8c2.8-2.5,5.7-4.8,8.2-7.9
		c-3.2,2.1-6.3,4.2-9.2,6.1c-0.9-2.8-1.9-5.9-3.2-9.9c3.2-1.7,6.9-3.6,10.7-5.6c-1.1,0-2.6-0.5-3.7,0.1c-2.7,1.4-5.4,2.9-7.8,4.9
		c-4.2,3.5-8.4,2.6-12.8,1.1c-0.5-0.2-1-0.4-1.3-0.7c-1.1-1.3,0.6-12.4,2-13.3c7-4.5,7.3-4.5,12.8-5.2c-2.3,0-4.6-0.4-6.8,0.1
		c-1.9,0.4-3.6,1.9-5.3,3c-3.9,2.3-7.4,1.1-8.4-3.8c-0.7-3.6-0.3-7.5,0.2-11.2c0.3-2.3,1.5-4.5,2.2-6.8c0.7-2.3,1.2-4.6,1.8-6.6
		c4.4,0.6,8.6,1.2,12.8,1.9c0-0.4,0.1-0.7,0.1-1.1c-3.4-0.7-6.8-1.2-10.2-2c-2.8-0.7-4.6-2-2.7-5.9c0.6-1.3-0.2-3.5-0.4-5.6
		c3.1,1.6,6.3,3.2,9.4,4.8c0.1-0.3,0.3-0.6,0.4-1c-3.4-2-6.8-4-10.6-6.2c3.1-4.3,7.5-3.4,11.8-5.5c-1.1,6.6,2,9.9,6.2,12.5
		c0.8,0.5,1.6,2.1,1.5,3.1c-0.7,8.3,2,14.9,6.8,20.8c0.2,0.3,0.3,0.8,0.4,1.1C64,126,53.3,128.6,50,137.6c7.3-9.2,15.5-9,24-6.9
		C74.7,130.8,75.4,130.1,76,129.7z M64.7,145.9c5.4-1.2,11.1-2.9,16.9-3.6c6-0.7,11.4,2,15.9,7C91.6,137.5,72.6,139.2,64.7,145.9z"
		/>
	<path class="st0" d="M171.7,166.4c-0.2-2.2-0.4-3.9-0.6-5.6c-0.6-5.4-0.2-9.9,3.2-14.7c3.4-4.8,4.7-11.6,6.9-17.6
		c0.9-2.4,1-5.1,4.4-5.2c1.1,0,2.6-2.1,3.3-3.6c1.7-3.6,3.3-7.3,4.5-11.1c0.4-1.3-0.4-3.1-0.8-5.1c6.4-4.1,13.7-6.7,21.3-7.7
		c5.1-0.7,10.4-0.2,15.6-0.3c3.5,0,6,1.2,6.1,5.9c0,0.8,0.4,1.6,0.7,2.7c-4.1,0-8.1,0-12.1,0c0,0.3,0,0.5,0,0.8
		c2.9,0.1,5.7,0.4,8.6,0.4c3.8,0.1,5.7,2.1,5.3,6.6c-0.1,1.5,0,3.1,0,5.3c-8.3-6.1-17-8.6-26.2-8.8c-0.1,0.4-0.1,0.8-0.2,1.2
		c3.1,0.4,6.3,0.4,9.3,1.4c4.9,1.7,9.8,3.8,14.5,6.3c2.7,1.4,3.1,5.8,1.2,8.7c-1.9,2.9-3.9,2.4-6.3,0.3c-3.7-3.3-8.1-4.5-12.8-4.3
		c4.2,1.7,8.5,3.5,12.7,5.2c-2,3.1-3.5,5.5-5.2,8.3c-6-3.6-12.8-6.2-20.3-4.6c4.3,0.8,8.6,1.5,12.9,2.6c2,0.5,3.9,1.8,5.8,2.8
		c1.6,0.8,3.1,2.3,1.7,4.1c-0.7,0.9-2.9,1-4.1,0.5c-2.5-1-4.8-2.6-7.2-4c-0.2,0.4-0.3,0.7-0.5,1.1c2.1,1.2,4.1,2.5,6.2,3.7
		c1.6,0.9,3,2.4,1.6,4.2c-0.9,1.1-3.1,1.9-4.4,1.5c-2.3-0.7-4.5-2.3-6.6-3.7c-6.8-4.6-13.5-4.3-19.7,1.5c-4.4,4.1-7.7,9.3-8.6,15.9
		c-0.5,3.5-1.7,5-4.8,4.9C175.5,166,173.8,166.2,171.7,166.4z M185.1,132.3c5.4-1.9,11-4.8,16.8-5.8c5.7-1,11.7-0.1,17,0
		C214,121.4,191.1,124.6,185.1,132.3z"/>
	<path class="st0" d="M62.5,64.3c4.6-14.6,11.7-27.7,9.4-43.7c0.5-0.1,0.9-0.2,1.4-0.3c2.8,8.6,5.5,17.2,8.3,25.8
		C80.8,37,78,28.5,74.3,20.5c2.9-0.9,5.6-1.7,8.2-2.5c2.7-0.8,6.8,1.8,7.9,4.8c1.7,4.4,3.7,8.7,5.6,12.9c0.6,1.3,1.5,2.3,2.6,3.2
		c-3.3-8.3-9-15.6-7.7-25.7c2.2,0.5,4,0.9,6.1,1.4c1.1,3.7,2.2,7.8,3.4,11.9c0.3-0.1,0.7-0.2,1-0.3c-0.8-3.1-1.7-6.1-2.3-9.2
		c-1.3-5.8-0.7-7.1,3.9-9.7c0.6-0.3,1.1-0.6,1.6-1c4.2-3.4,4.2-3.4,7.3,1.6c3,4.8,7.2,7.2,12,8.8c4.2,1.4,8.5,2.4,12.4,4.4
		c2.5,1.3,4.5,3.9,7.1,6.2c-3.1,2.9-5.4,4-8.6,4.8c-4.2,1-7.8,5.5-11.7,8.3c-1.5,1.1-3,2.1-4.6,2.6c-2.1,0.7-4.4,1-6.6,1.4
		c-6.5,1-13,1.9-19.5,3.1c-2.1,0.4-4.2,1.4-5.9,2.7c-4.1,3.2-7.5,7.6-13,8.3c-2.3,0.3-4.5,2.3-6.7,3.5
		C65.3,62.8,63.9,63.6,62.5,64.3z"/>
	<path class="st0" d="M78.3,284.5c2.1-4.9,3.9-8.9,5.7-13c-0.3-0.2-0.6-0.4-0.9-0.6c-1.6,3.6-3.6,7-4.8,10.7c-0.9,3-2.4,3.7-4.9,3.9
		c-4.6,0.3-8.5-1.3-12.4-4.5c2.6-10.1,8.5-16.9,17.7-21.5c-7.1,0.2-14.6,8.7-18.9,20.5c-2.9-0.3-5.8-0.6-9.1-0.9
		c2.5-10.2,7.1-18.6,15.3-24.6c-5,0.3-8.4,5-17,23.6c-0.1-1.3-0.4-2.1-0.2-2.7c2.4-7.6,1.1-15.4,0.8-23.1
		c-0.2-6.6,0.2-13.2,0.8-19.8c0.2-1.9,1.6-3.7,2.7-6.3c3.7,4,7,7.7,10.4,11.3c1.3,1.3,2.8,2.5,4.4,3c3.8,1.1,6.4,3.8,9.2,6.8
		c7.4,8.3,16.7,10.7,26.8,9.9c0.7-0.1,1.4-0.2,2-0.3c2.4,4.4,4.7,8.6,7.2,13.3c-4.3,3.8-8.7,7.8-13.9,12.5
		c0.5-7.5,0.8-13.5,1.2-19.4c-0.3,0-0.6,0-0.9-0.1c-0.5,5.1-1,10.3-1.7,15.4c-0.2,1.2-1.3,2.9-2.2,3.1
		C90.1,282.7,84.7,283.5,78.3,284.5z"/>
	<path class="st0" d="M45.8,192.5c0.2,1.2,0.5,2.5,0.5,3.7c-0.1,9,0.9,17.7,4.9,25.8c0.4,0.8,0.3,2.4-0.2,3.1
		c-4,5.6-4.3,12.2-4.4,18.9c0,2.5-0.7,5-1,7.6c-0.4,0-0.8,0-1.2-0.1c-0.2-1.9-0.6-3.8-0.7-5.7c-0.2-3.7-0.2-7.4-3.5-9.7
		c-0.6-0.4-0.8-2-0.9-3c-0.3-5.6-0.5-11.1-1.4-16.7c0,6.2,0,12.4,0,19.5c-1.6-1-3.1-1.5-3.9-2.6c-3.1-4.1-5.9-8.4-8.9-12.6
		c-3.7-5.3-7.4-10.7-11.2-15.8c-1.5-2-1.9-3.8-0.2-5.5c3.9-3.9,8-7.6,11.9-11.3c-5.2,1.3-9.3,5.3-12.5,9.7
		c-3.5-8.3-6.9-16.5-10.5-25.2c3.6-0.6,6.1-1,8.6-1.5c0-0.4-0.1-0.7-0.1-1.1c-2.4,0.2-4.9,0.4-7.3,0.6c-0.7-6,2.5-9,9.8-9.1
		c0.4,7.6,5.7,11.9,9.5,16.9c2,2.7,6,3.6,9.3,4.7c1.9,0.7,2.9,1.4,3.4,3.6C37.5,194,39.3,194.9,45.8,192.5z"/>
	<path class="st0" d="M47.8,74.8c8.5-4.4,16.8-8.6,26.2-13.5c-1.8,2.8-2.9,4.9-4.3,6.6c-4.4,5.6-8.1,11.4-8.2,19.4
		c0,1.1-1.9,2.5-3.2,3.1c-3.4,1.7-6.9,2.8-10.3,4.6c-0.8,0.4-1.5,2.4-1.3,3.4c1.8,7.1,2.2,14.2-0.4,21.2c-2,5.4-4.2,10.9-2.5,16.8
		c0.8,2.9,2.5,5.8,4.4,7.9c1.9,2,1.7,3.1,0,4.6c-0.4,0.3-0.8,0.7-1.2,0.9c-6.6,4.1-10.3,10.4-10.8,19.1c-0.2,3.8-1,7.5-1.5,11.6
		c-6-0.4-10.8-2.7-13.5-9.7c3.5-3.7,7.1-7.4,10.7-11.2c-0.2-0.3-0.4-0.6-0.6-0.9c-3.6,3.6-7.3,7.2-10.9,10.8c-4.1-2.7-4.5-7-4-12.2
		c7.2-2.8,14.5-5.6,21.9-8.4c0-0.2-0.1-0.5-0.1-0.7c-3.3,0.9-6.6,1.5-9.8,2.6c-3.4,1.2-6.7,2.8-10.4,3.7c1.7-1.4,3.3-3,5.1-4.2
		c17.3-11.8,22.7-29.8,20.5-51.6c-0.7-7.3-1.8-14.5-2.8-22.9c2.1,0.1,4.3-0.2,6.1,0.5c3.2,1.4,6.2,3.5,9.3,5.3
		c1.2,0.7,2.4,1.2,3.6,1.8c0.1-0.3,0.3-0.6,0.4-1C56,79.8,51.9,77.3,47.8,74.8z"/>
	<path class="st0" d="M124.6,42.5c4-3.3,6.4-8.8,12.6-7.4c1.4,0.3,3.3-2.1,5.1-3.1c1.2-0.6,2.5-0.9,3.7-1.4c0.3,1.4,0.6,2.8,0.7,4.1
		c0.1,2,0,4,0.5,6.2c0-5.6,1-10.7,6.1-12.7c1.4-0.6,3.1-0.1,5.5-0.1c-4.3,6.4-7.4,12.2-7.6,20.1c2-5.3,3.6-9.9,5.5-14.4
		c2.4-5.7,7.3-3.9,11.7-4.5c-7.7,7.4-13,16.4-15.4,27.4c0.3,0.2,0.6,0.4,0.9,0.5c0.4-1.3,0.8-2.5,1.2-3.8c2.6-8.3,6.6-15.5,12.7-21
		c3.3-3,3.6-3,6.9,0.9c-2.4,3.4-4.9,6.8-7.3,10.2c0.3,0.3,0.6,0.6,0.9,0.8c0.9-1.3,1.8-2.6,2.7-3.8c4.8-6.8,7.2-7.2,14.5-1.4
		c-1.6,1.1-2.9,2.2-4.4,3.2c-11.5,7.5-19,18.3-21.7,33.4c-0.5,2.8-3.8,4.9-5.8,7.4c-0.3-0.2-0.6-0.4-1-0.5c0.8-3.5,1.7-7,2.5-10.5
		c1.6-6.9,0.5-8.3-5.7-7.3c-2.1,0.4-2.6-0.6-2.5-2.8c0.1-8.9-1.8-12.1-9.1-15.2C133.7,45,129.3,44,124.6,42.5z"/>
	<path class="st0" d="M277.8,183.6c-0.2-1.8-0.3-3.5-0.5-5.2c-0.2,0-0.5,0-0.7,0c-0.4,2.3-0.2,5.2-1.3,6.8c-1.2,1.8-3.7,2.4-6.3,3.9
		c-0.1-11.7-3.7-20.7-13.1-27.3c3.3-2.6,5.9-5,8.8-6.9c7.3-4.6,12.9-10.9,17.2-19c0.7-1.3,1.4-2.6,2.1-4.1c6.4,1.8,12,4.8,13.4,12.5
		c2.1,11.2-2.5,19.6-10.1,26.2c-1.7-2.7-3.2-5.7-5.3-8c-1.9-2.2-4.4-3.7-6.7-5.5c-0.2,0.4-0.5,0.8-0.7,1.2c1.4,1.1,3,1.9,4.3,3.2
		C288,170.6,288.3,174.3,277.8,183.6z"/>
	<path class="st0" d="M161.2,77.3c0.7-15.4,15-34.8,27.1-36.5c-0.6,4.5,0.2,8.2,5.2,9.3c-3.8,4-7.4,7.3-10.6,11.2
		c-3.1,3.8-5.7,8.2-7.9,12.9c5.2-6.7,10.3-13.3,15.3-19.8c5.9,4.9,4.6,12.4,7.2,18.4c-8.1,5.5-14.2,13.4-18.5,23
		c-0.4,0-0.9,0.1-1.3,0.1c-0.4-1.8-1.4-3.8-1.2-5.5c0.5-5.7-0.6-7.6-5.4-8.3c-1.8-0.3-3.6-0.9-5.3-1.7
		C164.3,79.6,162.9,78.4,161.2,77.3z"/>
	<path class="st0" d="M199.2,64.8c-1.3-2.9-2.5-5.1-3.3-7.5c-0.6-1.5-1.2-3.5-0.8-4.9c0.8-3,0.6-4.7-2.3-5.9c-0.9-0.4-2-2.9-1.7-4.1
		c0.7-2.9,0.6-3.9-2.4-5c-4.5-1.7-8.9-4.4-12.9-7.4c-4-3.1-8.1-4.1-12.7-3.2c-4.3,0.8-5.3-0.6-3.9-5.1c0.8-2.7,1.4-5.5,2.6-8
		c0.5-1.1,2.1-2.3,3.2-2.3c1.6,0,2.9,1.2,2.5,3.7c-0.3,1.8-0.1,3.8-0.1,5.7c0.3,0,0.7,0,1,0c0.1-2.4,0.3-4.7,0.5-7.6
		c1.8-0.5,3.8-1.6,5.8-1.7c5.6-0.3,8.9,4.7,7.5,10.9c-0.6,2.5-1.2,5.1-2.1,8.7c4-4.1,1.6-11.3,7.7-13.5c0.9,3.8,1.7,7.2,2.5,10.7
		c1.4,5.8,3.1,7.4,8.5,8c0.5,1.7,1.1,3.5,1.7,5.5c-1,0.7-2,1.3-3,2c4.6-1.2,7.6,0.4,9.2,5.5c0.3,1,2.1,1.5,3.2,2
		c11.5,5,22.9,9.9,34.8,15c-0.1,0.5-0.3,1.7-0.5,2.6c-2.5-0.1-4.8-0.2-7-0.5c-0.9-0.1-2.1-0.5-2.5-1.3c-5.9-10.7-24.2-10.1-32.3-4.5
		C201.1,63.6,199.9,64.4,199.2,64.8z"/>
	<path class="st0" d="M229.6,94c-11-1.1-22-0.4-31.6,5.4c-7.1,4.3-12,1.4-17.7-2.8c4-9.2,9.4-17,17.4-21.9c1.7-1.1,4.8,0.7,7.3,1.1
		c0.4,2.4,0.8,4.4,1.1,6.2c-5.2,2.6-10.2,5.2-15.2,7.8c0.1,0.2,0.2,0.4,0.3,0.6c6-2.2,12.1-6.6,17.9-6.1c7.1,0.6,13.9,5.2,20.9,8.1
		C229.8,93,229.7,93.5,229.6,94z"/>
	<path class="st0" d="M292,92.4c1.8,4.4,0.9,7-1,10.2c-2.4,4-4,8.8-5,13.5c-2.6,12.5-7,23.6-16.1,31.7c-1.9,1.7-4,3.1-5.4,4.2
		c2.6-5.3,5.7-11,8.3-16.9c1.7-3.9,3.2-8,4.1-12.1c0.8-3.5,0.9-7.2,0.8-10.9c-0.1-3.5-2.1-4.7-4.9-3c-1.9,1.2-3,0.7-4.2-1.4
		c-1.2-2.1-3.2-3.5-4.7-5.4c-1.8-2.3-3.5-4.7-5.8-7.7c8.3,1.6,15.4,2.9,22.5,4.3c0.1-0.3,0.2-0.7,0.3-1c-1.7,1.7-3.3,3.4-5,5.1
		c0.1,0.2,0.3,0.3,0.4,0.5C281.5,99.9,286.6,96.2,292,92.4z"/>
	<path class="st0" d="M196.4,240.4c0.3-0.6,0.4-1.3,0.8-1.6c4.4-4,4.2-9,2.3-14.2c-1.7-4.7-3.8-9.2-5.7-13.8c-0.9-2.1-3-3.9-1.5-6.9
		c0.2-0.4-0.8-1.9-1.5-2.7c-2.7-2.8-5.6-5.6-9.2-9.2c2.4,0,4.3-0.7,5.5,0.1c5.6,3.7,10.9,3.7,16.2-1.4c5.6,9.9,7,20.4,6.1,31.5
		c-0.6,7.7-3.3,14.4-7.5,20.5c-1.4,2-2.6,2.4-3.8,0.8c1.7-3.9,3.8-7.3,4.6-11c0.8-3.6,0.2-7.6-0.5-11.4c-1.5,5.7,1.1,12.1-2.9,17.3
		c-0.8,1-1.1,2.5-1.6,3.7C197.3,241.5,196.8,241,196.4,240.4z"/>
	<path class="st0" d="M159.9,95.5c2.4-1.1,4.7-2.1,7.8-3.6c0.5,1.4,1.6,3.3,1.8,5.3c0.5,4.5,1.7,8.1,4.7,11.5
		c2.9,3.4,4.4,8.4,6.4,12.7c0.1,0.2,0.1,0.5,0.1,0.8c-0.2,5.7-6.5,20.8-10.4,24.7C168.3,129.1,167.5,111,159.9,95.5z"/>
	<path class="st0" d="M144.6,212.7c3.1,0,5.3,0,7.5,0c2.3,0,4.7,0,7-0.3c2.6-0.3,5.1-0.8,7.6-1.6c1.3-0.4,2.6-1.5,3.5-2.7
		c3.2-4.1,6.2-8.4,9.7-13.2c2.7,2.2,5.5,4.6,8,6.7c-1.8,2.3-3.3,4-4.6,6c-1.9,2.9-3.5,6.2-5.6,9c-5.4,7.1-12.5,8-20.1,6.9
		c-0.2,0-0.5,0-0.7-0.2C153.1,220,149.3,216.8,144.6,212.7z"/>
	<path class="st0" d="M264.1,198c0.8,16.1-1.4,31.9-3.4,46.6c-7.6-0.9-14.7-1.7-22.4-2.6c6.2-5.8,11.7-10.8,16.9-16.1
		c4.8-4.8,6.7-10.7,5.6-18.3c-0.5-3.1,1.3-6.6,2.1-9.9C263.4,197.8,263.8,197.9,264.1,198z"/>
	<path class="st0" d="M136,274.6c-15.4,0.4-22.9-5-26.9-18.6c5.4-0.2,10.8-3.1,15.2,3.1C127.8,264,131.6,268.8,136,274.6z"/>
	<path class="st0" d="M170.8,90.4c0.7-0.2,1.7-0.6,2-0.7c1.1,2.6,1.8,5.4,3.3,7.3c1.6,2,4,3.1,6.1,4.6c-1.4,1.1-2.8,2.1-4.2,3.1
		c0.1,0.4,0.2,0.7,0.3,1.1c4.6-3.9,8.8-3.1,12.8,1.3c-1.2,2.9-2,6.3-6.1,4.9c-0.8-0.3-1.9,1.1-2.4,2.3c1.7-0.3,3.4-0.6,5.1-0.8
		c0.2,0.8,0.4,1.2,0.4,1.4c-1.1,1.9-2.2,3.8-3.3,5.7c-1.5-1.6-3.1-3.1-4.3-4.9c-2.3-3.7-4.5-7.6-6.5-11.5c-0.8-1.6-1.2-3.6-1.6-5.5
		C171.7,96.1,171.4,93.5,170.8,90.4z"/>
	<path class="st0" d="M55.1,67.8c-0.7-12,3.3-24,10.8-23C64.8,52.2,58.1,66.5,55.1,67.8z"/>
	<path class="st0" d="M173.1,86.4c-1,0.3-1.9,0.6-2.8,0.9c-2,0.9-3.9,1.9-5.9,2.7c-1.4,0.6-3.3,1.8-4.1,1.3
		c-1.9-1.4-3.7-3.4-4.7-5.6c-0.8-1.8,4.3-5.4,6.6-4.4C165.7,82.7,169.1,84.5,173.1,86.4z"/>
	<path class="st0" d="M150.6,232.6c1.8-4.9,0.3-8.7-2.9-12c0.4-0.4,0.8-0.7,1.2-1.1c2.3,2.3,4.7,4.6,7.3,7.2
		c-1.6,2.1-3.1,4.1-4.6,6.2C151.2,232.7,150.9,232.7,150.6,232.6z"/>
	<path class="st0" d="M189.5,163.7c1,1.1,2.3,2.5,3.6,4c0,0.4-0.1,0.8-0.1,1.2c-3.3-0.2-6.7-0.3-10-0.5c0-0.3-0.1-0.6-0.1-1
		C185.1,166.2,187.2,165,189.5,163.7z"/>
	<path class="st0" d="M192.5,162.6c2.7,0.2,5.2,0.4,7.7,0.7C197.7,166.6,195.5,166.4,192.5,162.6z"/>
	<path class="st0" d="M177.6,265.4c8.2,6.7,8.5,22.4,0.7,31C183.3,285.9,185.6,275.5,177.6,265.4z"/>
	<path class="st0" d="M162.8,165.3c-3.7-14.5-10.2-27.2-18.8-38.6C150.6,130.3,163,155.8,162.8,165.3z"/>
	<path class="st0" d="M163.5,150c-5.5-12.1-8.2-25.2-9.8-38.7C156.9,124.3,160.2,137.1,163.5,150z"/>
	<path class="st0" d="M207.3,168c8.9,0,26,14.1,28,24.9c-3.7-4.8-7.3-10.9-12-15.1C218.6,173.6,212.6,171.2,207.3,168z"/>
	<path class="st0" d="M64.7,145.9c7.9-6.7,26.9-8.4,32.8,3.4c-4.5-5-9.8-7.7-15.9-7C75.8,143,70.1,144.7,64.7,145.9z"/>
	<path class="st0" d="M76,129.7c-0.7,0.3-1.4,1-1.9,0.9c-8.6-2.1-16.8-2.2-24,6.9c3.2-8.9,14-11.6,26.1-7.7
		C76.2,129.9,76,129.7,76,129.7z"/>
	<path class="st0" d="M185.1,132.3c6-7.7,29-10.9,33.8-5.8c-5.3-0.1-11.3-0.9-17,0C196.1,127.5,190.5,130.4,185.1,132.3z"/>
</g>
</svg>
