<?xml version="1.0" encoding="utf-8"?>
<!-- Generator: Adobe Illustrator 24.0.1, SVG Export Plug-In . SVG Version: 6.00 Build 0)  -->
<svg version="1.1" id="Layer_1" xmlns="http://www.w3.org/2000/svg" xmlns:xlink="http://www.w3.org/1999/xlink" x="0px" y="0px"
	 width="256px" height="315.1px" viewBox="0 0 256 315.1" style="enable-background:new 0 0 256 315.1;" xml:space="preserve">
<style type="text/css">
	.st0{fill: #7332c8;}
</style>
<g>
	<path d="M231.4,39.4h-54.2v-9.8C177.2,13.3,164,0,147.7,0h-39.4C92,0,78.8,13.3,78.8,29.5v9.8H24.6C11,39.4,0,50.4,0,64v34.5
		c0,5.4,4.4,9.8,9.8,9.8h5.4l8.5,178.6c0.8,15.8,13.7,28.1,29.5,28.1h149.5c15.8,0,28.8-12.4,29.5-28.1l8.5-178.6h5.4
		c5.4,0,9.8-4.4,9.8-9.8V64C256,50.4,245,39.4,231.4,39.4L231.4,39.4z"/>
	<path class="st0" d="M212.6,286c-0.3,5.3-4.6,9.4-9.8,9.4H53.2c-5.3,0-9.6-4.1-9.8-9.4l-8.5-177.7h186.1L212.6,286z"/>
	<path class="st0" d="M98.5,29.5c0-5.4,4.4-9.8,9.8-9.8h39.4c5.4,0,9.8,4.4,9.8,9.8v9.8H98.5V29.5z"/>
	<path class="st0" d="M19.7,64c0-2.7,2.2-4.9,4.9-4.9h206.8c2.7,0,4.9,2.2,4.9,4.9v24.6c-3,0-204,0-216.6,0V64z"/>
	<path d="M128,275.7c5.4,0,9.8-4.4,9.8-9.8v-128c0-5.4-4.4-9.8-9.8-9.8c-5.4,0-9.8,4.4-9.8,9.8v128
		C118.2,271.3,122.6,275.7,128,275.7z"/>
	<path d="M177.2,275.7c5.4,0,9.8-4.4,9.8-9.8v-128c0-5.4-4.4-9.8-9.8-9.8c-5.4,0-9.8,4.4-9.8,9.8v128
		C167.4,271.3,171.8,275.7,177.2,275.7z"/>
	<path d="M78.8,275.7c5.4,0,9.8-4.4,9.8-9.8v-128c0-5.4-4.4-9.8-9.8-9.8s-9.8,4.4-9.8,9.8v128C68.9,271.3,73.3,275.7,78.8,275.7z"/>
</g>
</svg>
